P2
# 
2 6
255
0 50 100 150 200 250
0 50 100 150 200 250
