P2
# 
1 6
255
0 50 100 150 200 250